<svg xmlns="http://www.w3.org/2000/svg" height="72" width="285" style="width: 285px; height: 72px; position: absolute; top: 50%; left: 50%; transform: translate(-50%, -50%) scale(1); z-index: 0; cursor: pointer;"><defs id="SvgjsDefs1001"/><g id="SvgjsG1007" featurekey="symbolFeature-0" transform="matrix(0.720000109863298,0,0,0.720000109863298,-3.5200804931763447,-0.000009269715769915125)" fill="#1b5a7a"><path xmlns="http://www.w3.org/2000/svg" d="M4.889,31.285l6.091,16.903c0,0-2.281,0.801-2.293,1.523c-0.002,0.181-2.796,0.162-2.796,0.162l0.023,0.699l2.715-0.029  c0,0-0.064,0.938,2.574,1.147L5.076,68.912c0,0,4.031,1.212,8.576-4.894c4.544-6.105,6.921-9.158,6.921-9.158  s0.823-2.694,4.638-1.358c5.126,1.793,23.306,0.795,23.536,1.755C49.57,58.688,37.483,90.382,31.7,99.406  c-0.264,0.409-1.946,0.093-1.946,0.093L29.708,100l5.779-0.117h-0.07c0,0,2.237-0.933,8.18-8.996  c5.941-8.062,6.152-8.317,6.152-8.317s0.373,0.885,0.652,1.188c0.28,0.302,6.362,1.28,7.388-0.723c1.025-2.006,0-2.751,0-2.751  s-3.691-1.111-6.059-0.559c-0.351,0.081,7.596-10.324,7.596-10.324s0.094,1.585,1.26,1.607c1.164,0.024,6.896,0.584,6.943-1.956  s-0.629-2.891-2.518-2.878c-1.885,0.011-3.309,0.24-3.309,0.24S69.906,54.65,71.49,54.65c1.586,0,12.445,0.022,12.445,0.022  s11.176-0.908,11.176-4.402c0-3.496-11.15-4.522-11.15-4.522l-12.656-0.07L61.891,34.19c0,0,5.174,1.375,5.336-0.326  c0.164-1.701,1.096-4.404-1.467-4.474c-2.564-0.07-6.154-0.49-6.48,1.328c-0.324,1.818-7.689-10.206-7.689-10.206  s6.082,1.257,6.152,0.208c0.07-1.048,1.025-4.59-1.725-4.567c-2.75,0.024-5.77-0.243-6.502,1.305  c-0.054,0.113-6.711-8.925-8.971-12.177c-1.575-2.263-3.624-6.245-9.322-5.068c-0.956,0.197,1.026,0.653,1.026,0.653l6.898,16.499  l7.69,19.412c0,0,2.563,7.761,1.538,8.064c-1.025,0.302-6.105,0.652-10.37,0.721c-4.265,0.07-11.251-0.221-15.055,1.376  c-0.943,0.396-2.212-1.144-2.212-1.144S11.39,30.034,4.889,31.285z"/></g><g id="SvgjsG1008" featurekey="nameFeature-0" transform="matrix(0.49535113234399664,0,0,0.49535113234399664,83.63283111565643,22.936903198293663)" fill="#111111"><path d="M8.04 25.04 l0 11.96 c0 1.92 -0.68 3.12 -2.64 3.12 s-2.64 -1.2 -2.64 -3.12 l0 -21.8 c0 -1.52 0.84 -2.72 2.2 -2.72 l12.2 0 c1.36 0 2.44 0.72 2.44 2.28 s-1.08 2.28 -2.44 2.28 l-9.12 0 l0 3.44 l8.72 0 c1.36 0 2.44 0.72 2.44 2.28 s-1.08 2.28 -2.44 2.28 l-8.72 0 z M23.712999999999997 36.56 l0 -21.48 c0 -1.52 0.84 -2.72 2.52 -2.72 s2.52 1.2 2.52 2.72 l0 20.12 l7.72 0 c1.44 0 2.6 0.76 2.6 2.4 s-1.16 2.4 -2.6 2.4 l-9.28 0 c-2.64 0 -3.48 -1.36 -3.48 -3.44 z M47.506 15.079999999999998 l0 22.32 c0 1.52 -0.8 2.72 -2.52 2.72 s-2.52 -1.2 -2.52 -2.72 l0 -22.32 c0 -1.52 0.8 -2.72 2.52 -2.72 s2.52 1.2 2.52 2.72 z M78.179 23.84 l0 13.28 c0 2 -1.12 3.12 -4.8 3.12 c-16.08 0 -20.32 -9.92 -20.56 -15.56 c-0.24 -7.04 4.04 -12.2 11.24 -12.2 l10.16 0 c1.44 0 2.6 0.76 2.6 2.4 s-1.16 2.4 -2.6 2.4 l-8.76 0 c-4.8 0 -6.96 2.56 -6.96 6.52 c0 7.64 6.56 11.64 14.64 11.64 l0 -10 l-6.08 0 c-1.36 0 -2.48 -0.72 -2.48 -2.28 s1.12 -2.28 2.48 -2.28 l7.68 0 c2.8 0 3.44 1.36 3.44 2.96 z M88.65200000000002 20.88 l9.28 0 l0 -5.8 c0 -1.52 0.8 -2.72 2.52 -2.72 s2.52 1.2 2.52 2.72 l0 22.32 c0 1.52 -0.8 2.72 -2.52 2.72 s-2.52 -1.2 -2.52 -2.72 l0 -12.2 l-9.28 0 l0 12.2 c0 1.52 -0.8 2.72 -2.52 2.72 s-2.52 -1.2 -2.52 -2.72 l0 -22.32 c0 -1.52 0.8 -2.72 2.52 -2.72 s2.52 1.2 2.52 2.72 l0 5.8 z M118.885 17.28 l0 20.12 c0 1.52 -0.8 2.72 -2.52 2.72 s-2.52 -1.2 -2.52 -2.72 l0 -20.12 l-4.64 0 c-1.44 0 -2.6 -0.76 -2.6 -2.4 s1.16 -2.4 2.6 -2.4 l14.32 0 c1.44 0 2.6 0.76 2.6 2.4 s-1.16 2.4 -2.6 2.4 l-4.64 0 z M160.87099999999998 17.28 l-7.44 0 c-4.32 0 -5.8 2.76 -5.8 6.88 c0 5.12 4.44 11.04 12.88 11.04 c2.28 0 3.24 1.04 3.24 2.4 c0 1.92 -1.48 2.64 -4.24 2.64 c-7.84 0 -17.56 -5.28 -17.56 -16.4 c0 -6.88 4.28 -11.36 10.04 -11.36 l8.88 0 c1.44 0 2.6 0.76 2.6 2.4 s-1.16 2.4 -2.6 2.4 z M192.944 26.240000000000002 c0 8.96 -6.16 14 -13 14 s-13 -5.04 -13 -14 s6.16 -14 13 -14 s13 5.04 13 14 z M187.26399999999998 26.240000000000002 c0 -5.28 -2.96 -9.44 -7.32 -9.44 s-7.32 4.16 -7.32 9.44 s2.96 9.44 7.32 9.44 s7.32 -4.16 7.32 -9.44 z M217.09699999999998 15.120000000000001 l0 22.24 c0 1.56 -0.8 2.76 -2.52 2.76 s-2.52 -1.2 -2.52 -2.76 l0 -12.68 c-3.28 -0.36 -6.64 -2.64 -9.28 -5.72 l0 18.4 c0 1.56 -0.8 2.76 -2.52 2.76 s-2.52 -1.2 -2.52 -2.76 l0 -22.24 c0.08 -1.56 1.04 -2.76 3.24 -2.76 c3.92 0 4.36 5.88 11.08 7.76 l0 -5 c0 -1.56 0.8 -2.76 2.52 -2.76 s2.52 1.2 2.52 2.76 z M242.36999999999998 15.120000000000001 l0 22.24 c0 1.56 -0.8 2.76 -2.52 2.76 s-2.52 -1.2 -2.52 -2.76 l0 -12.68 c-3.28 -0.36 -6.64 -2.64 -9.28 -5.72 l0 18.4 c0 1.56 -0.8 2.76 -2.52 2.76 s-2.52 -1.2 -2.52 -2.76 l0 -22.24 c0.08 -1.56 1.04 -2.76 3.24 -2.76 c3.92 0 4.36 5.88 11.08 7.76 l0 -5 c0 -1.56 0.8 -2.76 2.52 -2.76 s2.52 1.2 2.52 2.76 z M253.80299999999997 17.04 l0 3.44 l9.6 0 c1.36 0 2.44 0.72 2.44 2.28 s-1.08 2.28 -2.44 2.28 l-9.6 0 l0 10.4 l10 0 c1.36 0 2.44 0.72 2.44 2.28 s-1.08 2.28 -2.44 2.28 l-11.8 0 c-2.64 0 -3.48 -1.36 -3.48 -3.44 l0 -21.36 c0 -1.52 0.84 -2.72 2.2 -2.72 l13.08 0 c1.36 0 2.44 0.72 2.44 2.28 s-1.08 2.28 -2.44 2.28 l-10 0 z M289.47599999999994 17.28 l-7.44 0 c-4.32 0 -5.8 2.76 -5.8 6.88 c0 5.12 4.44 11.04 12.88 11.04 c2.28 0 3.24 1.04 3.24 2.4 c0 1.92 -1.48 2.64 -4.24 2.64 c-7.84 0 -17.56 -5.28 -17.56 -16.4 c0 -6.88 4.28 -11.36 10.04 -11.36 l8.88 0 c1.44 0 2.6 0.76 2.6 2.4 s-1.16 2.4 -2.6 2.4 z M306.62899999999996 17.28 l0 20.12 c0 1.52 -0.8 2.72 -2.52 2.72 s-2.52 -1.2 -2.52 -2.72 l0 -20.12 l-4.64 0 c-1.44 0 -2.6 -0.76 -2.6 -2.4 s1.16 -2.4 2.6 -2.4 l14.32 0 c1.44 0 2.6 0.76 2.6 2.4 s-1.16 2.4 -2.6 2.4 l-4.64 0 z M323.022 15.079999999999998 l0 22.32 c0 1.52 -0.8 2.72 -2.52 2.72 s-2.52 -1.2 -2.52 -2.72 l0 -22.32 c0 -1.52 0.8 -2.72 2.52 -2.72 s2.52 1.2 2.52 2.72 z M339.09499999999997 34.68 c3.28 -5.76 4.88 -11.72 5.52 -18.32 c0.24 -2.44 0.4 -4 2.92 -4 c1.4 0 2.52 0.8 2.52 2.88 c0 5.48 -3.28 16.04 -6.12 20.84 c-1.36 2.28 -2.32 4.16 -4.84 4.16 s-3.48 -1.88 -4.84 -4.16 c-2.84 -4.8 -6.12 -15.36 -6.12 -20.84 c0 -2.08 1.12 -2.88 2.52 -2.88 c2.52 0 2.68 1.56 2.92 4 c0.64 6.6 2.24 12.56 5.52 18.32 z M360.248 15.079999999999998 l0 22.32 c0 1.52 -0.8 2.72 -2.52 2.72 s-2.52 -1.2 -2.52 -2.72 l0 -22.32 c0 -1.52 0.8 -2.72 2.52 -2.72 s2.52 1.2 2.52 2.72 z M376.64099999999996 17.28 l0 20.12 c0 1.52 -0.8 2.72 -2.52 2.72 s-2.52 -1.2 -2.52 -2.72 l0 -20.12 l-4.64 0 c-1.44 0 -2.6 -0.76 -2.6 -2.4 s1.16 -2.4 2.6 -2.4 l14.32 0 c1.44 0 2.6 0.76 2.6 2.4 s-1.16 2.4 -2.6 2.4 l-4.64 0 z M398.7939999999999 27.119999999999997 l0 10.04 c0 1.68 -0.88 2.96 -2.72 2.96 s-2.72 -1.28 -2.72 -2.96 l0 -10.04 c-3.52 -2.76 -7.72 -8.64 -7.72 -12.4 c0 -1.4 1.16 -2.36 2.36 -2.36 c1.04 0 2.36 0.48 2.92 2.64 c0.72 2.72 2.76 6.52 5.16 8.28 c2.4 -1.76 4.44 -5.56 5.16 -8.28 c0.56 -2.16 1.88 -2.64 2.92 -2.64 c1.2 0 2.36 0.96 2.36 2.36 c0 3.76 -4.2 9.64 -7.72 12.4 z"/></g></svg>